# xmcd
#
# Track frame offsets: 
#        150
#        2477
#        20085
#        35198
#        47361
#        58605
#        81473
#        96750
#        106852
#        134878
#
# Disc length: 1959 seconds
#
# Revision: 0
# Processed by: cddbd v1.5.2PL0 Copyright (c) Steve Scherf et al.
# Submitted via: ExactAudioCopy v0.95b4
#
DISCID=8307a50a
DTITLE=King Wilkie - Live in Person
DYEAR=2002
DGENRE=Country
TTITLE0=Shenandoah Breakdown
TTITLE1=Ashevville Junction
TTITLE2=Back and Forth
TTITLE3=Blue Once Again
TTITLE4=Earl's Breakdown
TTITLE5=Dancin' Shoes
TTITLE6=Train 45
TTITLE7=Ain't Gonna Work
TTITLE8=Workshop Discussion
TTITLE9=Sweetheart You Done Me Wrong
EXTD=
EXTT0=
EXTT1=
EXTT2=
EXTT3=
EXTT4=
EXTT5=
EXTT6=
EXTT7=
EXTT8=
EXTT9=
PLAYORDER=
